<svg xmlns="http://www.w3.org/2000/svg"  viewBox="0 0 64 64" width="256px" height="256px" baseProfile="basic"><path fill="#9c34c2" d="M43.576,36.625c2.888,0,4.564-1.232,5.46-2.267c1.565-1.804,1.913-4.2,1.943-5.815	c0.017-0.926-0.795-1.645-1.713-1.521h0c-0.739,0.1-1.283,0.723-1.307,1.469c-0.036,1.14-0.284,2.637-1.115,3.588	c-0.643,0.735-1.591,1.092-2.899,1.092L43.576,36.625z"/><path fill="#9c34c2" d="M20.028,33.171c-1.308,0-2.256-0.357-2.899-1.092c-0.831-0.951-1.079-2.448-1.115-3.588	c-0.024-0.746-0.567-1.369-1.307-1.469h0c-0.918-0.124-1.73,0.596-1.713,1.521c0.03,1.615,0.378,4.01,1.943,5.815	c0.896,1.035,2.572,2.267,5.46,2.267L20.028,33.171z"/><path fill="#9c34c2" d="M37.8,54.736c0.147,0.88,1.013,1.448,1.879,1.232l3.04-0.76c0.906-0.227,1.457-1.145,1.23-2.051l0,0	c-0.227-0.906-1.145-1.456-2.051-1.229l-1.092,0.273l-0.826-4.957l-3.336,0.556L37.8,54.736z"/><path fill="#9c34c2" d="M26.354,47.799l-3.336-0.556l-0.826,4.957l-1.092-0.273c-0.906-0.227-1.824,0.324-2.051,1.229v0	c-0.227,0.906,0.324,1.825,1.23,2.051l3.04,0.76c0.866,0.216,1.732-0.352,1.879-1.232L26.354,47.799z"/><ellipse cx="32" cy="61" opacity=".3" rx="19" ry="3"/><path fill="#ffce29" d="M52.704,49H11.296c-1.004,0-1.618-1.101-1.092-1.955L32,11.648l21.796,35.397	C54.322,47.899,53.707,49,52.704,49z"/><path fill="orange" d="M53.149,45.995L52.42,44.81l-1.113-1.807H40l-0.008-3.009h9.462l-1.841-2.99H16.386l-1.841,2.99	h8.457v3.022H12.684l-1.162,1.887l-0.672,1.091h6.135V49h3.034v-3.005h9.992L29.996,49h3.001v-3.005H43V49h3.017v-3.005H53.149z M36.983,43.017H25.986v-3.022h10.997V43.017z"/><path fill="#9c34c2" d="M26,40.694v-4.396c0-1.047,1.007-1.662,1.742-1.063l4.011,3.269l-4.013,3.255	C27.005,42.355,26,41.74,26,40.694z"/><path fill="#9c34c2" d="M37,40.693v-4.395c0-1.048-1.007-1.663-1.742-1.063l-4.008,3.268l4.01,3.255	C35.995,42.355,37,41.74,37,40.693z"/><rect width="7" height="3" x="28" y="37" fill="#9c34c2"/><path fill="#9c34c2" d="M36.5,16h-9c-0.828,0-1.5-0.672-1.5-1.5v0c0-0.828,0.672-1.5,1.5-1.5h9c0.828,0,1.5,0.672,1.5,1.5v0	C38,15.328,37.328,16,36.5,16z"/><path fill="#9c34c2" d="M31,7h2c1.105,0,2,0.895,2,2v4.764h-6V9C29,7.895,29.895,7,31,7z"/><path fill="#fff" d="M24.03,34.128c1.52-2.47,6.228-10.114,6.228-10.114 c1.447-2.351,0.715-5.431-1.636-6.879c0,0,0,0-0.001,0L16.389,37.001C16.389,37.001,21.966,37.48,24.03,34.128z" opacity=".3"/><path d="M53.796,47.045L42.573,28.818c-2.351,1.448-3.083,4.528-1.636,6.879l4.174,6.779 C45.521,43.142,45.041,44,44.259,44H41c-2.762,0-5,2.239-5,5h16.704C53.707,49,54.322,47.899,53.796,47.045z" opacity=".15"/><path fill="#fff" d="M39,28.5l-0.184,0.427C38.747,29.096,37.031,33,32,33s-6.747-3.904-6.816-4.072L25,28.5l0.184-0.427	C25.253,27.904,26.969,24,32,24c4.997,0,6.747,3.892,6.816,4.061L39,28.5z"/><path fill="#9c34c2" d="M33,28.5c0,1.035-0.287,2.252-0.553,3.159c-0.131,0.447-0.763,0.447-0.894,0	C31.287,30.752,31,29.535,31,28.5s0.287-2.252,0.553-3.159c0.131-0.447,0.763-0.447,0.894,0C32.713,26.248,33,27.465,33,28.5z"/><line x1="30.5" x2="29.5" y1="19.5" y2="21.5" fill="none" stroke="#fff" stroke-linecap="round" stroke-linejoin="round" stroke-miterlimit="10" stroke-width="3"/></svg>