<svg xmlns="http://www.w3.org/2000/svg"  viewBox="0 0 64 64" width="256px" height="256px" baseProfile="basic"><ellipse cx="32" cy="40" fill="#9c34c2" rx="10" ry="12"/><ellipse cx="32" cy="40" fill="#ffa1ac" rx="6.667" ry="9"/><circle cx="14" cy="20" r="10" fill="#9c34c2"/><circle cx="14" cy="20" r="5" fill="#ffa1ac"/><circle cx="50" cy="20" r="10" fill="#9c34c2"/><path d="M50,30c5.523,0,10-4.477,10-10c0-1.751-0.452-3.394-1.243-4.826C56.601,15.73,55,17.67,55,20	c0,2.757-2.243,5-5,5c-2.33,0-4.27,1.601-4.825,3.757C46.606,29.548,48.249,30,50,30z" opacity=".15"/><circle cx="50" cy="20" r="5" fill="#ffa1ac"/><ellipse cx="32" cy="61" opacity=".3" rx="17" ry="3"/><ellipse cx="32" cy="20" fill="#9c34c2" rx="14" ry="13"/><ellipse cx="32" cy="20" fill="#ffa1ac" rx="11" ry="10"/><circle cx="26.5" cy="20.5" r="2.5" fill="#9c34c2"/><circle cx="37.5" cy="20.5" r="2.5" fill="#9c34c2"/><path fill="#9c34c2" d="M33.9,23.2l-1.5-2c-0.189-0.252-0.611-0.252-0.801,0l-1.5,2c-0.113,0.151-0.132,0.354-0.047,0.523	S30.311,24,30.5,24h3c0.189,0,0.362-0.107,0.447-0.276S34.014,23.352,33.9,23.2z"/><path fill="#fd3c4f" d="M32,28c-1.103,0-2-0.748-2-1.667C30,26.149,30.179,26,30.4,26h3.2c0.221,0,0.4,0.149,0.4,0.333 C34,27.252,33.103,28,32,28z"/><path fill="#9c34c2" d="M30,52.657c0,3.124-11,3.124-11,0C19,49.533,21.462,47,24.5,47S30,49.533,30,52.657z"/><path fill="#9c34c2" d="M45,52.657c0,3.124-11,3.124-11,0C34,49.533,36.462,47,39.5,47S45,49.533,45,52.657z"/><path fill="none" stroke="#9c34c2" stroke-linecap="round" stroke-linejoin="round" stroke-miterlimit="10" stroke-width="4" d="M19,42	c0,0,0-6,6-9"/><path fill="none" stroke="#9c34c2" stroke-linecap="round" stroke-linejoin="round" stroke-miterlimit="10" stroke-width="4" d="M45,42	c0,0,0-6-6-9"/><path fill="#fff" d="M14,10C8.477,10,4,14.477,4,20c0,1.751,0.452,3.394,1.243,4.826	C7.399,24.27,9,22.33,9,20c0-2.757,2.243-5,5-5c2.33,0,4.271-1.601,4.826-3.757C17.394,10.452,15.751,10,14,10z" opacity=".3"/><path fill="none" stroke="#fff" stroke-linecap="round" stroke-linejoin="round" stroke-miterlimit="10" stroke-width="3" d="M8.235,17C8.851,15.82,9.82,14.851,11,14.235"/></svg>