<svg xmlns="http://www.w3.org/2000/svg"  viewBox="0 0 64 64" width="256px" height="256px" baseProfile="basic"><ellipse cx="32" cy="61" opacity=".3" rx="19" ry="3"/><path fill="#9c34c2" d="M32,6c12.724,0,23.038,10.28,23.038,22.962S44.724,51.924,32,51.924S8.962,41.644,8.962,28.962	c0-6.889,3.456-9.185,3.456-9.185S14.682,6,32,6z"/><path fill="none" stroke="#fff" stroke-linecap="round" stroke-linejoin="round" stroke-miterlimit="10" stroke-width="3" d="M19.336,13.998c1.334-1.347,3.165-2.613,5.67-3.457"/><path fill="#fff" d="M32,6C14.682,6,12.417,19.777,12.417,19.777s-1.707,1.145-2.721,4.218	c0.561,0.367,1.202,0.631,1.905,0.746c0.278,0.046,0.555,0.068,0.827,0.068c2.399,0,4.511-1.714,4.912-4.16	C17.529,19.661,19.544,11,32,11c2.578,0,4.675-1.958,4.946-4.464C35.352,6.188,33.699,6,32,6z" opacity=".3"/><circle cx="50.495" cy="40.497" r="5.502" fill="orange"/><circle cx="13.5" cy="40.487" r="5.5" fill="orange"/><path fill="#ffce29" d="M32,16c-11.046,0-20,8.954-20,20s8.954,20,20,20s20-8.954,20-20S43.046,16,32,16z"/><path d="M51.361,31.064C48.904,31.381,47,33.457,47,36c0,8.271-6.729,15-15,15	c-2.543,0-4.619,1.904-4.936,4.361C28.646,55.763,30.293,56,32,56c11.046,0,20-8.954,20-20C52,34.293,51.763,32.646,51.361,31.064z" opacity=".15"/><path fill="#9c34c2" d="M32,44c-3.022,0-4.477,1.93-4.943,3.392C26.802,48.194,27.436,49,28.312,49h7.376	c0.876,0,1.51-0.806,1.255-1.608C36.477,45.93,35.011,44,32,44z"/><circle cx="40" cy="35" r="6" fill="#fafafa"/><circle cx="40" cy="36" r="2" fill="#9c34c2"/><circle cx="24" cy="35" r="6" fill="#fafafa"/><circle cx="24" cy="35.998" r="2" fill="#9c34c2"/></svg>