<svg xmlns="http://www.w3.org/2000/svg"  viewBox="0 0 64 64" width="256px" height="256px" baseProfile="basic"><circle cx="12.5" cy="42.5" r="5.5" fill="orange"/><path fill="#bd6300" d="M53.792,21.897c-0.628-0.932-1.899-1.164-2.816-0.514l-2.147,1.609	c-0.903,0.64-1.114,1.893-0.471,2.794l2.293,3.329l-5.284,4.02L47,36l8.954-6.512c1.138-0.828,1.409-2.412,0.61-3.571L53.792,21.897	z"/><ellipse cx="32" cy="61" opacity=".3" rx="19" ry="3"/><path fill="#37d0ee" d="M24.75,19.869c7.89,0,11.371,1.03,12.898,3.152c0.732-1.482,1.153-3.144,1.153-4.909	c0-6.144-4.98-11.124-11.124-11.124c-8.782,0-8.782,7.026-13.466,7.026c-4.527,0-8.197,3.67-8.197,8.197	c0,2.79,1.441,5.266,3.573,6.747C9.722,27.264,11.691,19.869,24.75,19.869z"/><path fill="#008aa9" d="M45,23.382c0,3.233-3.471,5.855-7.753,5.855c-3.296,0-8.366-3.771-10.139-8.197	c-0.53-1.324-1.301-7.026-0.544-7.026C39.036,14.015,45,19.869,45,23.382z"/><path fill="#9c34c2" d="M26.506,14.015c0,0-14.584-0.026-14.584,9.451l16.341-3.596L26.506,14.015z"/><path fill="#ffce29" d="M52,38c0-4.899-4.753-10.258-12-7c-4.742-1.186-1.365-14-15-14c-9.198,0-16,5.786-16,13.1	c0,4.682,4.702,7.9,4.702,14.866c0,6.033,6.085,10.045,14.281,10.045c9.472,0,13.708-4.628,15.017-9.011C49,46,52,43,52,38z"/><ellipse cx="33" cy="29.5" fill="#9c34c2" rx="2" ry="2.5"/><circle cx="26.494" cy="15.494" r="3.494" fill="orange"/><path fill="#9c34c2" d="M24.477,46.008L24.477,46.008c-0.939,0-1.629-0.866-1.448-1.788c0.322-1.646,1.113-3.031,2.361-4.133	c3.875-3.422,11.111-3.122,11.408-3.084l-0.944,2.992c-3.955,0-9.073,1.006-9.899,4.883C25.811,45.554,25.169,46.008,24.477,46.008z"/><path fill="orange" d="M43.546,33.951c1.207,2.188-0.074,5.328-2.861,7.011c-2.787,1.684-6.024,1.276-7.231-0.912	s0.074-5.328,2.861-7.011C39.102,31.356,42.339,31.763,43.546,33.951z"/><path d="M43,46c6,0,9-3,9-8c0-1.644-0.546-3.332-1.53-4.736C48.462,33.913,47,35.776,47,38c0,1.475,0,3-4,3 c-2.211,0-4.159,1.452-4.791,3.57c-0.293,0.981-0.973,2.384-2.549,3.501c-2.001,1.416-2.637,4.031-1.64,6.178 C39.347,52.76,42.011,49.312,43,46z" opacity=".15"/><path fill="#fff" d="M19.263,17.83C13.117,19.67,9,24.417,9,30.1c0,1.701,0.623,3.209,1.413,4.773 C12.481,34.26,14,32.367,14,30.1c0-3.968,1.252-4.502,3.525-6.027C19.596,22.684,20.279,20.022,19.263,17.83z" opacity=".3"/><path fill="#9c34c2" d="M22.5,35c-0.157,0-0.317-0.025-0.475-0.078c-0.786-0.262-1.21-1.111-0.948-1.897 c0.422-1.266,1.106-2.134,1.851-2.729c-0.551-0.678-0.939-1.457-1.276-2.131C20.867,26.594,20.479,26,19.5,26 c-0.443,0-0.647,0.154-0.789,0.306c-0.647,0.691-0.761,2.381-0.715,3.092c0.055,0.825-0.569,1.541-1.395,1.597 c-0.807,0.058-1.538-0.563-1.598-1.388c-0.025-0.354-0.197-3.51,1.51-5.343C17.283,23.437,18.315,23,19.5,23 c2.927,0,4.03,2.212,4.836,3.827C25.123,28.404,25.514,29,26.5,29c0.828,0,1.5,0.671,1.5,1.5S27.328,32,26.5,32 c-0.183,0.005-1.953,0.102-2.577,1.974C23.714,34.603,23.128,35,22.5,35z"/><path fill="none" stroke="#fff" stroke-linecap="round" stroke-miterlimit="10" stroke-width="3" d="M14.702,24.135	c0,0-2.326,1.669-2.202,5.365"/></svg>