<svg width="103" height="161" viewBox="0 0 103 161" fill="none" xmlns="http://www.w3.org/2000/svg">
<path d="M56.6 108C56.6 92.6 62.2 88.2 78.8 76.6C94.2 65.8 102.4 56.6 102.4 40C102.4 15.6 83.4 0.199993 53.8 0.199993C36.4 0.199993 24.4 4.6 15.8 11.8C8.6 17.8 3.6 25.8 0.8 34.6C0.4 35.8 0.2 37 0.2 38C0.2 42.4 3.8 44.8 7.6 45.8C8.8 46 10 46.2 11.2 46.2C14.8 46.2 18 44.4 19.6 39.6C24.2 26 34.4 16.6 52.8 16.6C71.8 16.6 83.2 26 83.2 40.8C83.2 51 78.8 56.2 64 66.6C52.2 74.6 50 76.6 46 81.8C40.6 88.6 38.6 95.2 38.6 107.8V113.4C38.6 118.6 42.6 121.2 47.8 121.2C52.8 121.2 56.6 118.6 56.6 113.4V108ZM47.4 133C39.6 133 33.6 138.4 33.6 146.8C33.6 155.2 39.6 160.6 47.4 160.6C55 160.6 61.2 155.2 61.2 146.8C61.2 138.4 55 133 47.4 133Z" fill="white"/>
</svg>
