<?xml version="1.0" encoding="iso-8859-1"?>
<!-- Generator: Adobe Illustrator 26.5.0, SVG Export Plug-In . SVG Version: 6.00 Build 0)  -->
<svg version="1.1" baseProfile="basic" id="&#x421;&#x43B;&#x43E;&#x439;_1"
	 xmlns="http://www.w3.org/2000/svg" xmlns:xlink="http://www.w3.org/1999/xlink" x="0px" y="0px" viewBox="0 0 64 64"
	 xml:space="preserve">
<path style="fill:#68E5FD;" d="M52.063,27.018c0-4.957-8.982-8.975-20.063-8.975s-20.063,4.018-20.063,8.975
	c0,2.874,3.031,5.426,7.729,7.069c0.566,3.157,1.988,8.953,5.289,13.645C27.801,51.777,32.042,55,38.336,55
	c4.087,0,7.002-0.781,8.998-1.672c1.014-0.453,0.628-1.97-0.481-1.906c-3.334,0.19-7.461-0.464-7.461-4.87
	c0-4.244,2.838-9.425,4.715-12.39C48.933,32.523,52.063,29.937,52.063,27.018z"/>
<ellipse style="opacity:0.3;" cx="32" cy="61" rx="19" ry="3"/>
<path style="fill:#37D0EE;" d="M42.301,37.27c0.024-0.046,0.049-0.089,0.073-0.135c0.121-0.227,0.242-0.448,0.363-0.666
	c0.021-0.038,0.042-0.075,0.062-0.112c0.133-0.237,0.265-0.467,0.395-0.691c0.018-0.031,0.036-0.062,0.054-0.093
	c0.126-0.215,0.25-0.423,0.372-0.624c0.024-0.04,0.049-0.082,0.073-0.121c0.099-0.163,0.196-0.318,0.291-0.47
	c0.037-0.059,0.075-0.123,0.111-0.18c-3.892,0-6.62-0.88-8.142-1.557c-0.726-0.322-0.783-1.323-0.115-1.753
	c0.855-0.552,2.14-1.253,3.891-1.878c0.688-0.246,1.245-0.75,1.245-1.48l0-0.162c0-0.959-0.889-1.676-1.827-1.475
	c-2.277,0.49-4.205,1.832-6.221,3.237c-3.23,2.25-6.88,4.78-13.257,4.995c0.568,3.161,1.991,8.944,5.286,13.628
	C27.801,51.777,32.042,55,38.336,55c4.087,0,7.002-0.781,8.998-1.672c1.014-0.453,0.628-1.97-0.481-1.906
	c-3.334,0.19-7.461-0.464-7.461-4.87c0-2.81,1.245-6.027,2.631-8.744C42.155,37.558,42.183,37.477,42.301,37.27z"/>
<path style="fill:#FD3C4F;" d="M23.733,45.795c0.693,1.21,1.493,2.38,2.412,3.462c1.917-1.435,6.271-3.808,13.251-2.781
	c0.011-1.328,0.302-2.745,0.745-4.158C31.833,41.054,26.393,43.845,23.733,45.795z"/>
<ellipse style="fill:#9C34C2;" cx="32" cy="10.651" rx="9" ry="6"/>
<path style="fill:#9C34C2;" d="M26,15h12c0,3.249-1.894,6.635-3.555,8.978c-1.196,1.688-3.699,1.687-4.894-0.001
	C27.893,21.634,26,18.249,26,15z"/>
<circle style="fill:#4CCFF1;" cx="32" cy="14" r="6"/>
<polygon style="fill:#9C34C2;" points="25.991,15.074 32,8 38,15.074 39.5,12.151 35,6.151 29,6.151 24,12 "/>
<g>
	<path style="opacity:0.15;" d="M47.333,53.328c1.014-0.453,0.628-1.97-0.481-1.906c-3.334,0.19-7.461-0.464-7.461-4.87
		c0-3.963,2.474-8.74,4.33-11.77c-0.094-0.051-0.176-0.116-0.274-0.161c-2.509-1.153-5.478-0.052-6.63,2.458
		c-1.609,3.508-2.426,6.694-2.426,9.473c0,3.549,1.553,5.761,2.856,6.991c0.596,0.563,1.272,1.034,2.01,1.434
		C42.859,54.869,45.493,54.149,47.333,53.328z"/>
	<path style="opacity:0.3;fill:#FFFFFF;" d="M11.937,27.018c0,1.567,0.906,3.036,2.487,4.317c1.443-0.833,2.441-2.351,2.509-4.121
		c0.276-0.432,1.533-1.604,4.648-2.646c2.485-0.831,3.858-3.423,3.246-5.924C17.294,19.936,11.937,23.193,11.937,27.018z"/>
</g>
<path style="fill:none;stroke:#FFFFFF;stroke-width:3;stroke-linecap:round;stroke-linejoin:round;stroke-miterlimit:10;" d="
	M15.437,27.018c0-0.836,1.607-2.308,4.697-3.516"/>
</svg>