<svg xmlns="http://www.w3.org/2000/svg"  viewBox="0 0 64 64" width="256px" height="256px" baseProfile="basic"><path fill="#cd2e42" d="M38.025,12.783C37.968,9.043,34.989,5.968,31.249,6c-7.677,0.067-4.587,8.408-11.043,10.022	c-4.455,1.114-3.72,5.757-5.568,6.682c-3.587,1.794-5.074,4.282-5.565,6.256c-0.365,1.468,0.624,2.949,2.131,3.077	c9.33,0.793,12.914,6.258,20.138,6.258c6.682,0,16.705-2.227,16.705-11.136C48.047,18.208,38.125,19.352,38.025,12.783z"/><path d="M48.047,27.159c0-2.063-0.531-3.586-1.343-4.794c-2.105,0.59-3.657,2.501-3.657,4.794	c0,1.459-0.381,3.134-3.211,4.501c-2.281,1.101-3.324,3.704-2.557,6.047C42.742,36.584,48.047,33.641,48.047,27.159z" opacity=".15"/><path fill="#fff" d="M35.888,7.858C34.68,6.699,33.056,5.985,31.249,6	c-7.677,0.067-4.587,8.408-11.043,10.022c-2.183,0.546-3.118,1.94-3.723,3.328c0.936,1.045,2.283,1.673,3.719,1.673	c0.401,0,0.809-0.049,1.216-0.15c5.415-1.353,7.186-5.511,8.244-7.996c0.271-0.638,0.682-1.602,0.847-1.781	c0.002-0.001,0.207-0.091,0.785-0.096C33.382,10.982,35.156,9.683,35.888,7.858z" opacity=".3"/><rect width="3" height="3.364" x="30" y="16" fill="#ffa1ac"/><path fill="#ffa1ac" d="M39.364,24.716l-2.623-4.933c-0.58-1.091-1.715-1.773-2.951-1.773h-4.867	c-1.235,0-2.37,0.682-2.95,1.772l-2.626,4.935l-3.706,3.302c-0.72,0.576-0.837,1.627-0.261,2.348l0,0	c0.576,0.721,1.628,0.837,2.348,0.261l3.568-3.138c0.448-0.394,0.831-0.858,1.133-1.372l1.25-2.128l0.322,4.044L35,28l0.281-4.011	l0.923,1.842c0.351,0.701,0.846,1.321,1.452,1.82l3.619,2.978c0.721,0.577,1.772,0.46,2.348-0.261l0,0	c0.576-0.72,0.459-1.772-0.261-2.348L39.364,24.716z"/><path fill="#008aa9" d="M42.6,50.545c0,0-3.6-2.041-3.6-7.146c0-1.874,0.843-3.165,1.755-4.014	c0.849-0.79,2.209-0.316,2.488,0.809C43.776,42.343,45,43.045,45,45.442C45,49.524,42.6,50.545,42.6,50.545z"/><path fill="#008aa9" d="M49.783,46c1.726,0,2.917,0.616,3.72,1.338c0.875,0.787,0.473,2.23-0.671,2.51	C50.326,50.463,49.158,52,46.653,52c-3.13,0-4.174-1.2-4.174-1.2S45.609,46,49.783,46z"/><path fill="#ffa1ac" d="M32.783,9.067c-1.171,0.997-2.811,2.058-4.721,2.388c-0.034,0.219-0.061,0.44-0.061,0.67	c0,2.153,1.567,5.011,3.499,5.011c1.933,0,3.499-2.859,3.499-5.011c0-0.233-0.026-0.459-0.062-0.681	C33.719,11.101,33.096,10.053,32.783,9.067z"/><path fill="#37d0ee" d="M39.256,51.022c-5.626,0-2.263-10.5-2.263-13.841c0-1.045-0.172-2.289-0.469-3.3	c-1.963,0.865-5.001,1.073-5.001,1.073s-2.953-0.004-4.916-0.834C26.266,35.384,26,36.77,26,38.295C26,42.75,28.209,55,37.046,55	c5.523,0,6.628-5.568,6.628-5.568S41.465,51.022,39.256,51.022z"/><path fill="#ffa1ac" d="M31.342,34.955c0,0,2.072-3.108,3.923-4.127C34.937,29.883,35,28.739,35,28h-7	c0,0.727-0.245,1.859-0.565,2.823C29.282,31.839,31.342,34.955,31.342,34.955z"/><path fill="#68e5fd" d="M26.4,30.5c-1.107,0-1.74,0.748-1.74,1.67c0,0.924,0.742,1.537,1.726,1.95	c0.332-1.222,0.725-2.319,1.049-3.296C27.077,30.626,26.725,30.5,26.4,30.5z"/><path fill="#68e5fd" d="M27.435,30.823c-0.324,0.978-0.717,2.075-1.049,3.296c1.98,0.831,4.957,0.835,4.957,0.835	S29.282,31.839,27.435,30.823z"/><path fill="#68e5fd" d="M38.024,32.17c0-0.922-0.607-1.67-1.714-1.67c-0.327,0-0.683,0.128-1.045,0.327	c0.351,1.01,0.778,2.11,1.118,3.259C37.326,33.674,38.024,33.068,38.024,32.17z"/><path fill="#68e5fd" d="M31.342,34.955c0,0,3.063-0.003,5.041-0.869c-0.34-1.148-0.767-2.248-1.118-3.258	C33.415,31.846,31.342,34.955,31.342,34.955z"/><ellipse cx="29.5" cy="23" fill="#9c34c2" rx="2.5" ry="2"/><ellipse cx="33.5" cy="23" fill="#9c34c2" rx="2.5" ry="2"/><ellipse cx="32" cy="61" opacity=".3" rx="18" ry="3"/><path fill="none" stroke="#fff" stroke-linecap="round" stroke-linejoin="round" stroke-miterlimit="10" stroke-width="3" d="M21.055,19.418c1.684-0.421,2.961-1.153,3.952-2.028"/></svg>